Patient4_TMGait_0pt6_01_right_19_GRF.mot
version=1
nRows=52
nColumns=19
inDegrees=no
endheader
time	F1x	F1y	F1z	M1x	M1y	M1z	F2x	F2y	F2z	M2x	M2y	M2z	EC1x	EC1y	EC1z	EC2x	EC2y	EC2z
22.5	0.36789	711.9624	55.9406	-268.7607	-44.3443	604.4045	-7.4943	5.8098	2.5487	1.3175	1.2794	8.3049	-0.0592	0.0182	-0.0073	-0.0462	0.0165	0.9585
22.5121	3.2413	708.5598	56.0038	-267.3496	-43.247	600.7299	-5.0315	4.7842	1.8317	1.1688	0.76956	6.4712	-0.0592	0.0182	-0.0073	-0.0462	0.0165	0.9585
22.5243	6.6586	705.9906	56.093	-266.2128	-41.8722	596.7275	-3.0061	3.9794	1.1474	1.0899	0.43631	5.0133	-0.0592	0.0182	-0.0073	-0.0462	0.0165	0.9585
22.5364	10.5043	705.0106	56.1742	-265.6263	-40.25	593.06	-1.5089	3.4218	0.57835	1.0672	0.24667	3.9827	-0.0592	0.0182	-0.0073	-0.0462	0.0165	0.9585
22.5486	14.655	706.0874	56.2486	-265.7579	-38.4436	590.2734	-0.51033	3.0916	0.15449	1.0856	0.16072	3.3509	-0.0592	0.0182	-0.0073	-0.0462	0.0165	0.9585
22.5607	18.989	709.3112	56.3311	-266.6269	-36.5335	588.6613	0.06584	2.9314	-0.13775	1.1256	0.15148	3.0295	-0.0592	0.0182	-0.0073	-0.0462	0.0165	0.9585
22.5729	23.3588	714.403	56.4464	-268.11	-34.6111	588.239	0.3313	2.858	-0.31999	1.1627	0.18752	2.8792	-0.0592	0.0182	-0.0073	-0.0462	0.0165	0.9585
22.585	27.6436	720.8177	56.6087	-269.985	-32.7508	588.7838	0.37203	2.7828	-0.43488	1.1689	0.26842	2.771	-0.0592	0.0182	-0.0073	-0.0462	0.0165	0.9585
22.5971	31.7011	727.878	56.8445	-271.9838	-31.0355	589.9361	0.28363	2.5904	-0.51314	1.1103	0.38616	2.5499	-0.0592	0.0182	-0.0073	-0.0462	0.0165	0.9585
22.6093	35.4828	734.9136	57.1529	-273.8467	-29.4973	591.2715	0.11657	2.1827	-0.5864	0.95334	0.54526	2.1165	-0.0592	0.0182	-0.0073	-0.0462	0.0165	0.9585
22.6214	38.9617	741.3706	57.5503	-275.357	-28.1641	592.419	-0.065939	1.4424	-0.66891	0.65698	0.73025	1.3363	-0.0592	0.0182	-0.0073	-0.0462	0.0165	0.9585
22.6336	42.2015	746.853	58.0252	-276.3639	-27.0054	593.0662	-0.23796	0.29053	-0.75748	0.18873	0.91707	0.13255	-0.0592	0.0182	-0.0073	-0.0462	0.0165	0.9585
22.6457	45.2473	751.1475	58.6081	-276.7895	-26.0232	593.0499	-0.3394	-1.3538	-0.8453	-0.47927	1.0685	-1.5991	-0.0592	0.0182	-0.0073	-0.0462	0.0165	0.9585
22.6579	48.1802	754.2002	59.3162	-276.6238	-25.1956	592.2924	-0.34045	-3.4651	-0.90359	-1.3373	1.1351	-3.8311	-0.0592	0.0182	-0.0073	-0.0462	0.0165	0.9585
22.67	51.0315	756.0806	60.2065	-275.907	-24.5494	590.8117	-0.17069	-5.9097	-0.89582	-2.3278	1.0482	-6.4369	-0.0592	0.0182	-0.0073	-0.0462	0.0165	0.9585
22.6821	53.8405	756.9425	61.2875	-274.7183	-24.0777	588.6859	0.2086	-8.3229	-0.76011	-3.301	0.72315	-9.027	-0.0592	0.0182	-0.0073	-0.0462	0.0165	0.9585
22.6943	56.61	756.9524	62.5677	-273.1526	-23.7817	586.0137	0.86551	-10.0523	-0.42581	-3.9875	0.06772	-10.9218	-0.0592	0.0182	-0.0073	-0.0462	0.0165	0.9585
22.7064	59.3611	756.2517	63.9798	-271.3006	-23.5983	582.8654	1.826	-10.0468	0.19985	-3.9561	-1.0188	-11.001	-0.0592	0.0182	-0.0073	-0.0462	0.0165	0.9585
22.7186	62.0832	754.9021	65.44	-269.2287	-23.4672	579.2527	3.0987	-6.829	1.1976	-2.5986	-2.6121	-7.6886	-0.0592	0.0182	-0.0073	-0.0462	0.0165	0.9585
22.7307	64.7616	752.8905	66.8104	-266.9791	-23.291	575.1485	4.6077	1.513	2.6313	0.8695	-4.7361	1.0608	-0.0592	0.0182	-0.0073	-0.0462	0.0165	0.9585
22.7429	67.3383	750.0473	67.9723	-264.5357	-23.0003	570.4217	6.1576	17.1877	4.5017	7.3511	-7.2941	17.6059	-0.0592	0.0182	-0.0073	-0.0462	0.0165	0.9585
22.755	69.749	745.9487	68.7737	-261.788	-22.5065	564.7709	7.3835	42.4073	6.6971	17.7411	-10.0021	44.3202	-0.0592	0.0182	-0.0073	-0.0462	0.0165	0.9585
22.7671	71.9121	739.7696	69.0655	-258.4803	-21.7408	557.5984	7.6526	78.8038	8.9227	32.687	-12.28	82.9748	-0.0592	0.0182	-0.0073	-0.0462	0.0165	0.9585
22.7793	73.7262	730.2873	68.632	-254.2117	-20.5953	548.0386	5.9037	126.6396	10.6728	52.261	-13.1523	133.8941	-0.0592	0.0182	-0.0073	-0.0462	0.0165	0.9585
22.7914	75.0534	715.8897	67.2526	-248.4411	-18.9732	534.9405	0.65975	183.7858	11.2425	75.5478	-11.285	194.8756	-0.0592	0.0182	-0.0073	-0.0462	0.0165	0.9585
22.8036	75.6769	694.7954	64.6735	-240.5596	-16.7828	517.0674	-8.6337	245.3293	9.683	100.4867	-5.493	260.734	-0.0592	0.0182	-0.0073	-0.0462	0.0165	0.9585
22.8157	75.3346	665.3708	60.7306	-230.0018	-14.025	493.2932	-20.4459	304.4555	5.4217	124.2861	4.1478	324.0933	-0.0592	0.0182	-0.0073	-0.0462	0.0165	0.9585
22.8279	73.7412	626.6198	55.3922	-216.4055	-10.8014	462.9757	-32.4267	355.401	-1.131	144.6348	16.1768	378.5022	-0.0592	0.0182	-0.0073	-0.0462	0.0165	0.9585
22.84	70.6783	578.5442	48.8708	-199.736	-7.3553	426.1744	-43.0177	396.5802	-8.9203	160.9327	28.7913	421.9567	-0.0592	0.0182	-0.0073	-0.0462	0.0165	0.9585
22.8521	66.0409	522.2477	41.5606	-180.3237	-4.0001	383.7455	-51.6326	430.5373	-16.7327	174.2536	40.4712	457.0227	-0.0592	0.0182	-0.0073	-0.0462	0.0165	0.9585
22.8643	59.8871	459.6995	33.9616	-158.7972	-1.0515	337.1344	-58.0652	461.138	-23.5399	186.2177	50.0682	487.8022	-0.0592	0.0182	-0.0073	-0.0462	0.0165	0.9585
22.8764	52.3959	393.5114	26.5214	-136.0154	1.2658	288.2442	-62.2515	491.5659	-28.6778	198.1371	56.8996	517.7273	-0.0592	0.0182	-0.0073	-0.0462	0.0165	0.9585
22.8886	43.8353	326.6127	19.6179	-112.9673	2.8099	239.1649	-64.2872	523.4028	-32.1283	210.6335	61.0163	548.5336	-0.0592	0.0182	-0.0073	-0.0462	0.0165	0.9585
22.9007	34.647	262.0499	13.5373	-90.6962	3.561	192.0412	-64.5734	556.8714	-34.3205	223.7249	63.0482	580.5907	-0.0592	0.0182	-0.0073	-0.0462	0.0165	0.9585
22.9129	25.4513	202.5633	8.4896	-70.1538	3.6143	148.7614	-63.717	591.3086	-36.0593	237.0389	64.0797	613.4015	-0.0592	0.0182	-0.0073	-0.0462	0.0165	0.9585
22.925	16.9632	150.2681	4.5839	-52.0763	3.1593	110.765	-62.4072	625.6442	-38.0907	250.0417	65.1555	646.076	-0.0592	0.0182	-0.0073	-0.0462	0.0165	0.9585
22.9371	9.7625	106.3299	1.82	-36.873	2.4053	78.8234	-61.1743	658.6902	-40.9608	262.1899	67.0459	677.5244	-0.0592	0.0182	-0.0073	-0.0462	0.0165	0.9585
22.9493	4.1585	70.9999	0.06182	-24.6385	1.554	53.0877	-60.3501	689.3704	-44.7998	273.0353	70.02	706.6954	-0.0592	0.0182	-0.0073	-0.0462	0.0165	0.9585
22.9614	0.1967	43.8618	-0.87358	-15.2339	0.73985	33.2611	-60.0066	716.7638	-49.3932	282.2524	73.9016	732.6054	-0.0592	0.0182	-0.0073	-0.0462	0.0165	0.9585
22.9736	-2.2151	24.0921	-1.2253	-8.3804	0.087022	18.7729	-60.0023	740.2144	-54.261	289.6633	78.1666	754.4994	-0.0592	0.0182	-0.0073	-0.0462	0.0165	0.9585
22.9857	-3.2896	10.6497	-1.2032	-3.7213	-0.34498	8.8858	-60.036	759.2065	-58.8978	295.1701	82.2098	771.7459	-0.0592	0.0182	-0.0073	-0.0462	0.0165	0.9585
22.9979	-3.3958	2.3963	-0.99195	-0.86121	-0.56106	2.7785	-59.8175	773.2553	-62.9358	298.6899	85.5587	783.7766	-0.0592	0.0182	-0.0073	-0.0462	0.0165	0.9585
23.01	-2.9774	-1.9349	-0.70369	0.63514	-0.63435	-0.45769	-59.0889	781.9395	-66.197	300.1542	87.9454	790.1196	-0.0592	0.0182	-0.0073	-0.0462	0.0165	0.9585
23.0221	-2.3286	-3.5627	-0.40632	1.1893	-0.62618	-1.7064	-57.7281	785.0599	-68.6215	299.5695	89.2731	790.5724	-0.0592	0.0182	-0.0073	-0.0462	0.0165	0.9585
23.0343	-1.6551	-3.5177	-0.14494	1.1616	-0.57529	-1.7173	-55.7198	782.8725	-70.1794	297.1085	89.5206	785.416	-0.0592	0.0182	-0.0073	-0.0462	0.0165	0.9585
23.0464	-1.0662	-2.582	0.061499	0.82644	-0.51048	-1.0683	-53.1243	776.1856	-70.8998	293.1373	88.752	775.4999	-0.0592	0.0182	-0.0073	-0.0462	0.0165	0.9585
23.0586	-0.61463	-1.2916	0.21266	0.37243	-0.44983	-0.15636	-50.0554	766.2702	-70.8405	288.181	87.0715	762.1189	-0.0592	0.0182	-0.0073	-0.0462	0.0165	0.9585
23.0707	-0.29645	0.017169	0.30652	-0.082927	-0.39312	0.78244	-46.6353	754.7157	-70.1075	282.8603	84.6337	746.877	-0.0592	0.0182	-0.0073	-0.0462	0.0165	0.9585
23.0829	-0.098547	1.1537	0.35805	-0.47423	-0.34941	1.6102	-43.0133	743.1863	-68.8403	277.8026	81.6297	731.446	-0.0592	0.0182	-0.0073	-0.0462	0.0165	0.9585
23.095	0.010505	2.0606	0.36904	-0.78064	-0.31153	2.2921	-39.3276	733.179	-67.2028	273.5553	78.2702	717.316	-0.0592	0.0182	-0.0073	-0.0462	0.0165	0.9585
23.1071	0.062452	2.7321	0.36367	-1.0018	-0.28685	2.819	-35.7083	725.8813	-65.347	270.5339	74.7515	705.665	-0.0592	0.0182	-0.0073	-0.0462	0.0165	0.9585
23.1193	0.07356	3.2202	0.3446	-1.1574	-0.27176	3.2349	-32.2375	722.0606	-63.4169	268.9881	71.2432	697.2375	-0.0592	0.0182	-0.0073	-0.0462	0.0165	0.9585
